<svg width="166" height="157" viewBox="0 0 166 157" fill="none" xmlns="http://www.w3.org/2000/svg">
<path d="M86.4178 20.2935C83.1786 13.7296 73.8192 13.7297 70.5799 20.2935L55.1557 51.5477L20.6662 56.5595C13.423 57.6121 10.5309 66.5139 15.7721 71.623L40.7288 95.9508L34.8373 130.303C33.6001 137.517 41.1719 143.019 47.6504 139.612L78.4989 123.394L109.347 139.612C115.826 143.019 123.397 137.517 122.16 130.303L116.269 95.9508L141.225 71.623C146.467 66.5139 143.574 57.6121 136.331 56.5595L101.842 51.5477L86.4178 20.2935ZM7.61676 24.7344C5.92412 26.8502 6.26715 29.9377 8.38295 31.6304L24.7363 44.7138C26.852 46.4065 29.9394 46.0634 31.632 43.9475C33.3246 41.8316 32.9816 38.7442 30.8658 37.0515L14.5125 23.9682C12.3967 22.2755 9.30933 22.6185 7.61676 24.7344ZM149.376 119.177C151.069 117.061 150.726 113.973 148.61 112.281L132.257 99.1974C130.141 97.5044 127.054 97.8479 125.361 99.9634C123.668 102.08 124.012 105.167 126.127 106.86L142.48 119.943C144.597 121.635 147.683 121.293 149.376 119.177ZM8.38295 112.281C6.26715 113.973 5.92412 117.061 7.61676 119.177C9.30933 121.293 12.3967 121.635 14.5125 119.943L30.8658 106.86C32.9816 105.167 33.3246 102.08 31.632 99.9634C29.9394 97.8479 26.852 97.5044 24.7363 99.1974L8.38295 112.281ZM149.376 24.7344C151.069 26.8502 150.726 29.9377 148.61 31.6304L132.257 44.7138C130.141 46.4065 127.054 46.0634 125.361 43.9475C123.668 41.8316 124.012 38.7442 126.127 37.0515L142.48 23.9682C144.597 22.2755 147.683 22.6185 149.376 24.7344Z" fill="#3A68FF"/>
<rect x="106" y="97" width="57" height="57" rx="28.5" fill="white"/>
<rect x="106" y="97" width="57" height="57" rx="28.5" stroke="#3A68FF" stroke-width="6"/>
<path d="M138.625 115.082V137H133.448V119.926H133.327L128.393 122.953V118.473L133.812 115.082H138.625Z" fill="#3A68FF"/>
</svg>
