<svg width="51" height="51" viewBox="0 0 51 51" fill="none" xmlns="http://www.w3.org/2000/svg">
<rect width="51" height="51" rx="25.5" fill="#3A68FF"/>
<path d="M23.5 37C23.5 37.8284 24.1716 38.5 25 38.5C25.8284 38.5 26.5 37.8284 26.5 37L25 37L23.5 37ZM26.0607 12.9393C25.4749 12.3536 24.5251 12.3536 23.9393 12.9393L14.3934 22.4853C13.8076 23.0711 13.8076 24.0208 14.3934 24.6066C14.9792 25.1924 15.9289 25.1924 16.5147 24.6066L25 16.1213L33.4853 24.6066C34.0711 25.1924 35.0208 25.1924 35.6066 24.6066C36.1924 24.0208 36.1924 23.0711 35.6066 22.4853L26.0607 12.9393ZM25 37L26.5 37L26.5 14L25 14L23.5 14L23.5 37L25 37Z" fill="white"/>
</svg>
