<svg width="44" height="43" viewBox="0 0 44 43" fill="none" xmlns="http://www.w3.org/2000/svg">
<path d="M11.4585 3.5835C9.18032 3.5835 7.3335 5.38835 7.3335 7.61475V30.9064C7.3335 33.1327 9.18032 34.9377 11.4585 34.9377H27.9585C30.2366 34.9377 32.0835 33.1327 32.0835 30.9064V7.61475C32.0835 5.38835 30.2366 3.5835 27.9585 3.5835H11.4585ZM12.8335 11.1981C12.8335 10.456 13.4465 9.85433 14.2028 9.85433H25.2142C25.9704 9.85433 26.5835 10.456 26.5835 11.1981C26.5835 11.9402 25.9704 12.5418 25.2142 12.5418H14.2028C13.4465 12.5418 12.8335 11.9402 12.8335 11.1981ZM14.2028 25.9793H25.2142C25.9704 25.9793 26.5835 26.581 26.5835 27.3231C26.5835 28.0652 25.9704 28.6668 25.2142 28.6668H14.2028C13.4465 28.6668 12.8335 28.0652 12.8335 27.3231C12.8335 26.581 13.4465 25.9793 14.2028 25.9793ZM12.8335 19.2606C12.8335 18.5185 13.4465 17.9168 14.2028 17.9168H25.2142C25.9704 17.9168 26.5835 18.5185 26.5835 19.2606C26.5835 20.0027 25.9704 20.6043 25.2142 20.6043H14.2028C13.4465 20.6043 12.8335 20.0027 12.8335 19.2606ZM16.0434 39.4168C14.2474 39.4168 12.7194 38.2951 12.1532 36.7293H27.9601C31.2508 36.7293 33.9185 34.1223 33.9185 30.9064V16.0121L35.4603 17.5189C36.2338 18.2748 36.6685 19.3002 36.6685 20.3694V30.9064C36.6685 35.6067 32.7695 39.4168 27.9601 39.4168H16.0434Z" fill="#3A68FF"/>
</svg>
