<svg width="122" height="119" viewBox="0 0 122 119" fill="none" xmlns="http://www.w3.org/2000/svg">
<path d="M31.771 9.9165C25.4542 9.9165 20.3335 14.9113 20.3335 21.0728V85.5311C20.3335 91.6923 25.4542 96.6873 31.771 96.6873H77.521C83.8375 96.6873 88.9585 91.6923 88.9585 85.5311V21.0728C88.9585 14.9113 83.8375 9.9165 77.521 9.9165H31.771ZM35.5835 30.9894C35.5835 28.9356 37.2833 27.2707 39.3802 27.2707H69.9118C72.0086 27.2707 73.7085 28.9356 73.7085 30.9894C73.7085 33.0432 72.0086 34.7082 69.9118 34.7082H39.3802C37.2833 34.7082 35.5835 33.0432 35.5835 30.9894ZM39.3802 71.8957H69.9118C72.0086 71.8957 73.7085 73.5607 73.7085 75.6144C73.7085 77.6682 72.0086 79.3332 69.9118 79.3332H39.3802C37.2833 79.3332 35.5835 77.6682 35.5835 75.6144C35.5835 73.5607 37.2833 71.8957 39.3802 71.8957ZM35.5835 53.3019C35.5835 51.2482 37.2833 49.5832 39.3802 49.5832H69.9118C72.0086 49.5832 73.7085 51.2482 73.7085 53.3019C73.7085 55.3557 72.0086 57.0207 69.9118 57.0207H39.3802C37.2833 57.0207 35.5835 55.3557 35.5835 53.3019ZM44.4838 109.083C39.5038 109.083 35.2672 105.979 33.6971 101.646H77.5256C86.6496 101.646 94.0464 94.4308 94.0464 85.5311V44.3119L98.3215 48.4818C100.466 50.5738 101.671 53.4115 101.671 56.3706V85.5311C101.671 98.5388 90.8607 109.083 77.5256 109.083H44.4838Z" fill="white"/>
</svg>
