<svg width="145" height="145" viewBox="0 0 145 145" fill="none" xmlns="http://www.w3.org/2000/svg">
<rect x="7.5" y="7.5" width="130" height="130" rx="65" stroke="#3A68FF" stroke-opacity="0.15" stroke-width="15"/>
<path d="M36.0522 61.5C36.2254 61.5 36.3861 61.3269 36.5345 60.9806C36.7077 60.6344 36.7942 60.0655 36.7942 59.2741V41.4668C36.7942 40.6753 36.7077 40.1189 36.5345 39.7973C36.3614 39.4511 36.1883 39.2656 36.0151 39.2409H48.1835C50.4341 39.2409 52.2025 39.55 53.4886 40.1683C54.7994 40.7619 55.7269 41.6152 56.271 42.7281C56.8151 43.8163 57.0871 45.0901 57.0871 46.5493C57.0871 48.0827 56.8027 49.4182 56.2339 50.5559C55.6898 51.6689 54.7623 52.5345 53.4515 53.1528C52.1654 53.7464 50.4094 54.0432 48.1835 54.0432H40.9493V59.2741C40.9493 60.0655 41.0358 60.6344 41.2089 60.9806C41.3821 61.3269 41.5552 61.5 41.7283 61.5H36.0522ZM42.4703 51.1124H47.4044C49.012 51.1124 50.2115 50.9145 51.003 50.5188C51.7944 50.1231 52.3138 49.579 52.5611 48.8865C52.8332 48.194 52.9692 47.4149 52.9692 46.5493C52.9692 45.6342 52.8084 44.8551 52.4869 44.2121C52.1654 43.569 51.5965 43.0867 50.7804 42.7652C49.9889 42.419 48.8636 42.2458 47.4044 42.2458H42.4703C41.7036 42.2458 41.2584 42.2953 41.1347 42.3942C41.0111 42.4684 40.9493 42.7529 40.9493 43.2475V50.0736C40.9493 50.5683 41.0111 50.8651 41.1347 50.964C41.2584 51.0629 41.7036 51.1124 42.4703 51.1124ZM60.6147 61.5C60.7878 61.5 60.9609 61.3269 61.1341 60.9806C61.3072 60.6344 61.3938 60.0655 61.3938 59.2741V41.4668C61.3938 40.6753 61.3072 40.1189 61.1341 39.7973C60.9609 39.4511 60.7878 39.2656 60.6147 39.2409H81.5012V39.9828L82.2432 43.5443C81.6249 43.2722 80.5366 42.9878 78.9785 42.691C77.4203 42.3695 75.5407 42.2087 73.3395 42.2087H67.0698C66.3279 42.2087 65.8827 42.2706 65.7343 42.3942C65.6106 42.4932 65.5488 42.8023 65.5488 43.3217V47.5509C65.5488 48.095 65.6106 48.4166 65.7343 48.5155C65.8827 48.6144 66.3155 48.6639 67.0327 48.6639H73.154C74.5885 48.6639 75.7385 48.5897 76.6042 48.4413C77.4945 48.2682 78.0758 48.095 78.3478 47.9219C78.2489 48.2434 78.1376 48.6268 78.0139 49.072C77.8903 49.5172 77.7913 49.9623 77.7171 50.4075C77.6429 50.8527 77.6058 51.2608 77.6058 51.6318H67.0327C66.3155 51.6318 65.8827 51.6812 65.7343 51.7802C65.6106 51.8544 65.5488 52.1759 65.5488 52.7447V57.345C65.5488 57.9138 65.6106 58.2477 65.7343 58.3466C65.858 58.4456 66.2908 58.495 67.0327 58.495H77.8284C79.2629 58.495 80.413 58.3343 81.2786 58.0127C82.169 57.6665 82.7502 57.3326 83.0222 57.0111L82.2803 60.3499V61.5H60.6147ZM86.0121 61.5C86.1853 61.5 86.346 61.3269 86.4944 60.9806C86.6676 60.6344 86.7541 60.0655 86.7541 59.2741V41.4668C86.7541 40.6753 86.6676 40.1189 86.4944 39.7973C86.3213 39.4511 86.1482 39.2656 85.975 39.2409H98.1434C100.443 39.2409 102.237 39.5253 103.523 40.0941C104.809 40.6382 105.711 41.4297 106.231 42.4684C106.775 43.4825 107.047 44.7191 107.047 46.1783C107.047 47.0934 106.849 47.9961 106.453 48.8865C106.058 49.7768 105.415 50.5436 104.524 51.1866C103.659 51.8296 102.484 52.2501 101 52.4479V52.5592C102.657 53.0044 104.079 53.8206 105.266 55.0077C106.478 56.1949 107.517 57.4934 108.383 58.9031C108.951 59.8182 109.471 60.4736 109.941 60.8693C110.411 61.265 110.769 61.4753 111.017 61.5H103.226C103.523 61.4753 103.758 61.3145 103.931 61.0177C104.129 60.6962 104.067 60.1768 103.745 59.4596C103.226 58.2724 102.484 57.2213 101.519 56.3062C100.58 55.3664 99.3924 54.6368 97.9579 54.1174C96.5234 53.5733 94.8169 53.3012 92.8383 53.3012H92.4302C91.6635 53.3012 91.2183 53.363 91.0946 53.4867C90.971 53.6104 90.9092 53.9195 90.9092 54.4142V59.2741C90.9092 60.0655 90.9957 60.6344 91.1688 60.9806C91.342 61.3269 91.5151 61.5 91.6882 61.5H86.0121ZM92.4302 50.3333H96.9933C98.9719 50.3333 100.456 49.9871 101.445 49.2946C102.434 48.5773 102.929 47.5386 102.929 46.1783C102.929 45.2632 102.731 44.5212 102.336 43.9524C101.965 43.3588 101.371 42.926 100.555 42.6539C99.7386 42.3819 98.6751 42.2458 97.3643 42.2458H92.4302C91.6635 42.2458 91.2183 42.2829 91.0946 42.3571C90.971 42.4313 90.9092 42.7158 90.9092 43.2104V49.3317C90.9092 49.8263 90.971 50.1231 91.0946 50.222C91.2183 50.2962 91.6635 50.3333 92.4302 50.3333ZM26.7767 107.5C26.9499 107.5 27.123 107.327 27.2961 106.981C27.4692 106.634 27.5558 106.066 27.5558 105.274V87.4668C27.5558 86.6753 27.4692 86.1189 27.2961 85.7973C27.123 85.4511 26.9499 85.2656 26.7767 85.2409H47.6632V85.9828L48.4052 89.5443C47.7869 89.2722 46.6987 88.9878 45.1405 88.691C43.5824 88.3695 41.7027 88.2087 39.5015 88.2087H33.2319C32.4899 88.2087 32.0447 88.2706 31.8963 88.3942C31.7727 88.4932 31.7108 88.8023 31.7108 89.3217V93.5509C31.7108 94.095 31.7727 94.4166 31.8963 94.5155C32.0447 94.6144 32.4775 94.6639 33.1948 94.6639H39.316C40.7505 94.6639 41.9006 94.5897 42.7662 94.4413C43.6566 94.2682 44.2378 94.095 44.5099 93.9219C44.4109 94.2434 44.2996 94.6268 44.176 95.072C44.0523 95.5172 43.9534 95.9623 43.8792 96.4075C43.805 96.8527 43.7679 97.2608 43.7679 97.6318H33.1948C32.4775 97.6318 32.0447 97.6812 31.8963 97.7802C31.7727 97.8544 31.7108 98.1759 31.7108 98.7447V105.274C31.7108 106.09 31.7974 106.671 31.9705 107.018C32.1437 107.339 32.3168 107.5 32.4899 107.5H26.7767ZM45.7518 107.5C45.8507 107.5 46.0238 107.327 46.2712 106.981C46.5185 106.634 46.84 106.053 47.2357 105.237C47.4089 104.866 47.7056 104.235 48.1261 103.345C48.5465 102.455 49.0412 101.403 49.61 100.192C50.1789 98.9797 50.7725 97.7183 51.3908 96.4075C52.0091 95.072 52.5903 93.7983 53.1344 92.5864C53.7032 91.3745 54.1979 90.311 54.6183 89.3959C55.0388 88.4808 55.3356 87.8378 55.5087 87.4668C55.855 86.6753 56.0405 86.1065 56.0652 85.7602C56.0899 85.414 56.0405 85.2409 55.9168 85.2409H62.409C62.3101 85.2409 62.273 85.414 62.2977 85.7602C62.3225 86.1065 62.4956 86.6753 62.8171 87.4668C62.9903 87.8378 63.2747 88.4808 63.6704 89.3959C64.0661 90.2863 64.536 91.3374 65.0801 92.5493C65.649 93.7612 66.2302 95.0225 66.8238 96.3333C67.4174 97.6194 67.9986 98.8684 68.5674 100.08C69.1363 101.292 69.6309 102.356 70.0514 103.271C70.4718 104.186 70.781 104.841 70.9788 105.237C71.3745 106.053 71.7332 106.634 72.0547 106.981C72.4009 107.327 72.6606 107.5 72.8337 107.5H65.9705C66.2178 107.451 66.4157 107.253 66.5641 106.906C66.7372 106.56 66.7125 106.004 66.4899 105.237C66.4404 105.039 66.3539 104.755 66.2302 104.384C66.1065 104.013 65.9952 103.741 65.8963 103.568C65.7479 103.221 65.5995 102.974 65.4511 102.826C65.3027 102.677 65.1049 102.578 64.8575 102.529C64.635 102.479 64.3134 102.455 63.893 102.455H54.3958C53.9258 102.455 53.5549 102.479 53.2828 102.529C53.0107 102.554 52.8005 102.64 52.6521 102.788C52.5285 102.937 52.4048 103.184 52.2811 103.53C52.1822 103.827 52.0833 104.124 51.9843 104.421C51.8854 104.718 51.8112 104.99 51.7618 105.237C51.5392 106.053 51.4773 106.634 51.5763 106.981C51.6752 107.327 51.8112 107.5 51.9843 107.5H45.7518ZM55.3603 99.4867H62.8171C63.5344 99.4867 63.9301 99.4249 64.0043 99.3012C64.0785 99.1776 64.0414 98.9055 63.893 98.485C63.5715 97.6936 63.2005 96.8403 62.78 95.9252C62.3596 94.9854 61.9268 94.0579 61.4816 93.1429C61.0611 92.203 60.6407 91.3127 60.2202 90.4718C59.8245 89.6061 59.4783 88.8518 59.1815 88.2087H59.1073C58.5879 89.297 58.0561 90.4347 57.512 91.6218C56.9679 92.7842 56.4485 93.8848 55.9539 94.9236C55.484 95.9376 55.1006 96.7661 54.8038 97.4092C54.507 98.0522 54.3587 98.3738 54.3587 98.3738C54.1855 98.7695 54.1237 99.0539 54.1732 99.227C54.2474 99.4001 54.6431 99.4867 55.3603 99.4867ZM85.5357 107.871C81.2817 107.871 78.0912 106.956 75.9642 105.126C73.862 103.271 72.8108 100.352 72.8108 96.3704C72.8108 94.0703 73.2437 92.067 74.1093 90.3605C74.9749 88.6292 76.3476 87.2813 78.2272 86.3167C80.1069 85.3521 82.543 84.8699 85.5357 84.8699C87.8852 84.8699 89.8391 84.9935 91.3972 85.2409C92.9554 85.4882 94.0065 85.7355 94.5506 85.9828V86.7248L95.2926 90.0637C94.8227 89.7421 94.1178 89.4083 93.178 89.062C92.2629 88.7158 91.1623 88.4313 89.8762 88.2087C88.5901 87.9614 87.168 87.8378 85.6099 87.8378C83.4087 87.8378 81.6774 88.2087 80.4161 88.9507C79.1547 89.668 78.2643 90.6696 77.745 91.9557C77.2256 93.2418 76.9659 94.7134 76.9659 96.3704C76.9659 98.0275 77.2256 99.4991 77.745 100.785C78.2891 102.047 79.2536 103.048 80.6386 103.79C82.0484 104.507 84.0641 104.866 86.6857 104.866C88.8127 104.866 90.5811 104.619 91.9908 104.124C93.4253 103.605 94.4022 103.11 94.9216 102.64V103.753L95.2926 106.016C94.8721 106.412 93.8457 106.82 92.2134 107.24C90.6058 107.661 88.3799 107.871 85.5357 107.871ZM105.769 107.5C105.943 107.5 106.116 107.327 106.289 106.981C106.462 106.634 106.549 106.066 106.549 105.274V89.3217C106.549 88.7776 106.487 88.4561 106.363 88.3571C106.239 88.2582 105.807 88.2087 105.065 88.2087H102.356C100.922 88.2087 99.7595 88.3695 98.8691 88.691C98.0035 88.9878 97.4346 89.2722 97.1626 89.5443L97.9046 85.9828V85.2409H119.348V85.9828L120.09 89.5443C119.817 89.2722 119.236 88.9878 118.346 88.691C117.48 88.3695 116.33 88.2087 114.896 88.2087H112.225C111.458 88.2087 111.013 88.2582 110.889 88.3571C110.765 88.4561 110.704 88.7776 110.704 89.3217V105.274C110.704 106.066 110.79 106.634 110.963 106.981C111.136 107.327 111.31 107.5 111.483 107.5H105.769Z" fill="#3A68FF" fill-opacity="0.15"/>
</svg>
