<svg width="44" height="43" viewBox="0 0 44 43" fill="none" xmlns="http://www.w3.org/2000/svg">
<path d="M24.2163 5.55971C23.3085 3.76199 20.6853 3.76201 19.7775 5.55971L15.4546 14.1198L5.78831 15.4925C3.75826 15.7808 2.94767 18.2189 4.41663 19.6182L11.4112 26.2812L9.76003 35.6896C9.41325 37.6656 11.5354 39.1724 13.3511 38.2395L20.6091 34.5105C20.3207 33.507 20.1665 32.4487 20.1665 31.355C20.1665 24.9231 25.5017 19.7092 32.0832 19.7092C34.2031 19.7092 36.1937 20.2501 37.9183 21.1984L39.5773 19.6182C41.0462 18.2189 40.2356 15.7808 38.2056 15.4925L28.5393 14.1198L24.2163 5.55971ZM42.1665 31.3541C42.1665 36.7965 37.6521 41.2083 32.0832 41.2083C26.5142 41.2083 21.9998 36.7965 21.9998 31.3541C21.9998 25.9118 26.5142 21.5 32.0832 21.5C37.6521 21.5 42.1665 25.9118 42.1665 31.3541ZM38.2314 27.1373C37.8734 26.7875 37.293 26.7875 36.9349 27.1373L30.2498 33.6706L27.2314 30.7206C26.8734 30.3709 26.293 30.3709 25.9349 30.7206C25.577 31.0705 25.577 31.6377 25.9349 31.9877L29.6016 35.571C29.9596 35.9207 30.5401 35.9207 30.8981 35.571L38.2314 28.4043C38.5893 28.0544 38.5893 27.4872 38.2314 27.1373Z" fill="#3A68FF"/>
</svg>
