<svg width="122" height="119" viewBox="0 0 122 119" fill="none" xmlns="http://www.w3.org/2000/svg">
<path d="M67.1461 15.3861C64.6288 10.411 57.3556 10.411 54.8383 15.3861L42.8522 39.0757L16.0502 42.8744C10.4214 43.6722 8.17387 50.4196 12.2469 54.292L31.641 72.7316L27.0627 98.7688C26.1012 104.237 31.9853 108.407 37.0198 105.825L57.1441 95.5057C56.3445 92.7285 55.917 89.7997 55.917 86.7731C55.917 68.9732 70.71 54.5439 88.9587 54.5439C94.8365 54.5439 100.356 56.0409 105.138 58.6653L109.738 54.292C113.811 50.4196 111.563 43.6722 105.934 42.8744L79.1326 39.0757L67.1461 15.3861ZM116.917 86.7706C116.917 101.832 104.4 114.041 88.9587 114.041C73.5175 114.041 61.0003 101.832 61.0003 86.7706C61.0003 71.7092 73.5175 59.4998 88.9587 59.4998C104.4 59.4998 116.917 71.7092 116.917 86.7706ZM106.006 75.1007C105.013 74.1328 103.404 74.1328 102.411 75.1007L83.8753 93.1812L75.5061 85.0174C74.5134 84.0495 72.904 84.0495 71.9112 85.0174C70.9189 85.9857 70.9189 87.5555 71.9112 88.5239L82.0779 98.4405C83.0706 99.4084 84.68 99.4084 85.6728 98.4405L106.006 78.6072C106.998 77.6389 106.998 76.069 106.006 75.1007Z" fill="white"/>
</svg>
