<svg width="171" height="24" viewBox="0 0 171 24" fill="none" xmlns="http://www.w3.org/2000/svg">
<path d="M0.263013 23C0.43614 23 0.5969 22.8269 0.745295 22.4806C0.918421 22.1344 1.00498 21.5655 1.00498 20.7741V2.96677C1.00498 2.17533 0.918421 1.61885 0.745295 1.29733C0.572168 0.951079 0.399041 0.765586 0.225915 0.740854H12.3942C14.6449 0.740854 16.4133 1.05001 17.6993 1.66832C19.0102 2.2619 19.9376 3.11516 20.4817 4.22812C21.0258 5.31634 21.2979 6.59006 21.2979 8.04927C21.2979 9.58268 21.0135 10.9182 20.4446 12.0559C19.9005 13.1689 18.9731 14.0345 17.6622 14.6528C16.3762 15.2464 14.6202 15.5432 12.3942 15.5432H5.16003V20.7741C5.16003 21.5655 5.24659 22.1344 5.41972 22.4806C5.59284 22.8269 5.76597 23 5.9391 23H0.263013ZM6.68107 12.6124H11.6152C13.2228 12.6124 14.4223 12.4145 15.2137 12.0188C16.0052 11.6231 16.5246 11.079 16.7719 10.3865C17.0439 9.69398 17.18 8.91491 17.18 8.04927C17.18 7.13417 17.0192 6.3551 16.6977 5.71206C16.3762 5.06902 15.8073 4.58674 14.9911 4.26522C14.1997 3.91896 13.0744 3.74584 11.6152 3.74584H6.68107C5.91436 3.74584 5.46918 3.7953 5.34552 3.89423C5.22186 3.96843 5.16003 4.25285 5.16003 4.7475V11.5736C5.16003 12.0683 5.22186 12.3651 5.34552 12.464C5.46918 12.5629 5.91436 12.6124 6.68107 12.6124ZM24.8255 23C24.9986 23 25.1717 22.8269 25.3448 22.4806C25.518 22.1344 25.6045 21.5655 25.6045 20.7741V2.96677C25.6045 2.17533 25.518 1.61885 25.3448 1.29733C25.1717 0.951079 24.9986 0.765586 24.8255 0.740854H45.712V1.48282L46.4539 5.04429C45.8356 4.77223 44.7474 4.48781 43.1893 4.19102C41.6311 3.8695 39.7515 3.70874 37.5503 3.70874H31.2806C30.5386 3.70874 30.0935 3.77057 29.9451 3.89423C29.8214 3.99316 29.7596 4.30232 29.7596 4.8217V9.05093C29.7596 9.59505 29.8214 9.91657 29.9451 10.0155C30.0935 10.1144 30.5263 10.1639 31.2435 10.1639H37.3648C38.7993 10.1639 39.9493 10.0897 40.8149 9.9413C41.7053 9.76817 42.2865 9.59505 42.5586 9.42192C42.4597 9.74344 42.3484 10.1268 42.2247 10.572C42.101 11.0172 42.0021 11.4623 41.9279 11.9075C41.8537 12.3527 41.8166 12.7608 41.8166 13.1318H31.2435C30.5263 13.1318 30.0935 13.1812 29.9451 13.2802C29.8214 13.3544 29.7596 13.6759 29.7596 14.2447V18.845C29.7596 19.4138 29.8214 19.7477 29.9451 19.8466C30.0687 19.9456 30.5015 19.995 31.2435 19.995H42.0392C43.4737 19.995 44.6237 19.8343 45.4894 19.5127C46.3797 19.1665 46.9609 18.8326 47.233 18.5111L46.491 21.8499V23H24.8255ZM50.2229 23C50.396 23 50.5568 22.8269 50.7052 22.4806C50.8783 22.1344 50.9649 21.5655 50.9649 20.7741V2.96677C50.9649 2.17533 50.8783 1.61885 50.7052 1.29733C50.5321 0.951079 50.3589 0.765586 50.1858 0.740854H62.3541C64.6543 0.740854 66.4474 1.02528 67.7334 1.59412C69.0195 2.13823 69.9223 2.92967 70.4416 3.96843C70.9857 4.98246 71.2578 6.21908 71.2578 7.67829C71.2578 8.59339 71.0599 9.49612 70.6642 10.3865C70.2685 11.2768 69.6255 12.0436 68.7351 12.6866C67.8695 13.3296 66.6947 13.7501 65.2107 13.9479V14.0592C66.8678 14.5044 68.2899 15.3206 69.4771 16.5077C70.689 17.6949 71.7277 18.9934 72.5934 20.4031C73.1622 21.3182 73.6816 21.9736 74.1515 22.3693C74.6214 22.765 74.98 22.9753 75.2274 23H67.4367C67.7334 22.9753 67.9684 22.8145 68.1415 22.5177C68.3394 22.1962 68.2776 21.6768 67.956 20.9596C67.4367 19.7724 66.6947 18.7213 65.7301 17.8062C64.7903 16.8664 63.6031 16.1368 62.1687 15.6174C60.7342 15.0733 59.0276 14.8012 57.0491 14.8012H56.641C55.8743 14.8012 55.4291 14.863 55.3054 14.9867C55.1818 15.1104 55.1199 15.4195 55.1199 15.9142V20.7741C55.1199 21.5655 55.2065 22.1344 55.3796 22.4806C55.5527 22.8269 55.7259 23 55.899 23H50.2229ZM56.641 11.8333H61.2041C63.1827 11.8333 64.6666 11.4871 65.6559 10.7946C66.6452 10.0773 67.1399 9.03857 67.1399 7.67829C67.1399 6.76319 66.942 6.02122 66.5463 5.45237C66.1753 4.8588 65.5817 4.42598 64.7656 4.15392C63.9494 3.88187 62.8859 3.74584 61.5751 3.74584H56.641C55.8743 3.74584 55.4291 3.78294 55.3054 3.85713C55.1818 3.93133 55.1199 4.21575 55.1199 4.7104V10.8317C55.1199 11.3263 55.1818 11.6231 55.3054 11.722C55.4291 11.7962 55.8743 11.8333 56.641 11.8333ZM77.6475 23C77.8206 23 77.9937 22.8269 78.1668 22.4806C78.34 22.1344 78.4265 21.5655 78.4265 20.7741V2.96677C78.4265 2.17533 78.34 1.61885 78.1668 1.29733C77.9937 0.951079 77.8206 0.765586 77.6475 0.740854H98.534V1.48282L99.2759 5.04429C98.6576 4.77223 97.5694 4.48781 96.0112 4.19102C94.4531 3.8695 92.5734 3.70874 90.3723 3.70874H84.1026C83.3606 3.70874 82.9155 3.77057 82.7671 3.89423C82.6434 3.99316 82.5816 4.30232 82.5816 4.8217V9.05093C82.5816 9.59505 82.6434 9.91657 82.7671 10.0155C82.9155 10.1144 83.3483 10.1639 84.0655 10.1639H90.1868C91.6213 10.1639 92.7713 10.0897 93.6369 9.9413C94.5273 9.76817 95.1085 9.59505 95.3806 9.42192C95.2816 9.74344 95.1703 10.1268 95.0467 10.572C94.923 11.0172 94.8241 11.4623 94.7499 11.9075C94.6757 12.3527 94.6386 12.7608 94.6386 13.1318H84.0655C83.3483 13.1318 82.9155 13.1812 82.7671 13.2802C82.6434 13.3544 82.5816 13.6759 82.5816 14.2447V20.7741C82.5816 21.5903 82.6681 22.1715 82.8413 22.5177C83.0144 22.8392 83.1875 23 83.3606 23H77.6475ZM96.6225 23C96.7214 23 96.8946 22.8269 97.1419 22.4806C97.3892 22.1344 97.7107 21.5532 98.1064 20.737C98.2796 20.366 98.5764 19.7353 98.9968 18.845C99.4173 17.9546 99.9119 16.9035 100.481 15.6916C101.05 14.4797 101.643 13.2183 102.261 11.9075C102.88 10.572 103.461 9.29826 104.005 8.08637C104.574 6.87448 105.069 5.81099 105.489 4.89589C105.91 3.9808 106.206 3.33775 106.379 2.96677C106.726 2.17533 106.911 1.60649 106.936 1.26023C106.961 0.91398 106.911 0.740854 106.788 0.740854H113.28C113.181 0.740854 113.144 0.91398 113.168 1.26023C113.193 1.60649 113.366 2.17533 113.688 2.96677C113.861 3.33775 114.145 3.9808 114.541 4.89589C114.937 5.78626 115.407 6.83739 115.951 8.04927C116.52 9.26116 117.101 10.5225 117.694 11.8333C118.288 13.1194 118.869 14.3684 119.438 15.5803C120.007 16.7922 120.502 17.8557 120.922 18.7708C121.343 19.6859 121.652 20.3413 121.85 20.737C122.245 21.5532 122.604 22.1344 122.925 22.4806C123.272 22.8269 123.531 23 123.704 23H116.841C117.089 22.9505 117.286 22.7527 117.435 22.4064C117.608 22.0602 117.583 21.5037 117.361 20.737C117.311 20.5391 117.225 20.2547 117.101 19.8837C116.977 19.5127 116.866 19.2407 116.767 19.0676C116.619 18.7213 116.47 18.474 116.322 18.3256C116.173 18.1772 115.976 18.0783 115.728 18.0288C115.506 17.9793 115.184 17.9546 114.764 17.9546H105.266C104.797 17.9546 104.426 17.9793 104.154 18.0288C103.881 18.0535 103.671 18.1401 103.523 18.2885C103.399 18.4369 103.276 18.6842 103.152 19.0305C103.053 19.3272 102.954 19.624 102.855 19.9208C102.756 20.2176 102.682 20.4897 102.632 20.737C102.41 21.5532 102.348 22.1344 102.447 22.4806C102.546 22.8269 102.682 23 102.855 23H96.6225ZM106.231 14.9867H113.688C114.405 14.9867 114.801 14.9249 114.875 14.8012C114.949 14.6776 114.912 14.4055 114.764 13.985C114.442 13.1936 114.071 12.3403 113.651 11.4252C113.23 10.4854 112.797 9.55795 112.352 8.64285C111.932 7.70302 111.511 6.81265 111.091 5.97175C110.695 5.10612 110.349 4.35178 110.052 3.70874H109.978C109.459 4.79696 108.927 5.93465 108.383 7.12181C107.839 8.28423 107.319 9.38482 106.825 10.4236C106.355 11.4376 105.971 12.2661 105.675 12.9092C105.378 13.5522 105.229 13.8738 105.229 13.8738C105.056 14.2695 104.994 14.5539 105.044 14.727C105.118 14.9001 105.514 14.9867 106.231 14.9867ZM136.406 23.371C132.152 23.371 128.962 22.4559 126.835 20.6257C124.733 18.7708 123.682 15.8523 123.682 11.8704C123.682 9.57032 124.114 7.56699 124.98 5.86046C125.846 4.12919 127.218 2.78128 129.098 1.81671C130.978 0.85215 133.414 0.369868 136.406 0.369868C138.756 0.369868 140.71 0.49353 142.268 0.740854C143.826 0.988177 144.877 1.2355 145.421 1.48282V2.2248L146.163 5.56367C145.693 5.24215 144.989 4.90826 144.049 4.56201C143.134 4.21575 142.033 3.93133 140.747 3.70874C139.461 3.46142 138.039 3.33775 136.481 3.33775C134.279 3.33775 132.548 3.70874 131.287 4.45071C130.025 5.16795 129.135 6.16961 128.616 7.4557C128.096 8.74178 127.837 10.2134 127.837 11.8704C127.837 13.5275 128.096 14.9991 128.616 16.2852C129.16 17.5465 130.124 18.5482 131.509 19.2901C132.919 20.0074 134.935 20.366 137.556 20.366C139.683 20.366 141.452 20.1187 142.862 19.624C144.296 19.1046 145.273 18.61 145.792 18.1401V19.253L146.163 21.5161C145.743 21.9118 144.716 22.3199 143.084 22.7403C141.477 23.1608 139.251 23.371 136.406 23.371ZM156.64 23C156.813 23 156.986 22.8269 157.16 22.4806C157.333 22.1344 157.419 21.5655 157.419 20.7741V4.8217C157.419 4.27758 157.357 3.95606 157.234 3.85713C157.11 3.7582 156.677 3.70874 155.935 3.70874H153.227C151.793 3.70874 150.63 3.8695 149.74 4.19102C148.874 4.48781 148.305 4.77223 148.033 5.04429L148.775 1.48282V0.740854H170.218V1.48282L170.96 5.04429C170.688 4.77223 170.107 4.48781 169.217 4.19102C168.351 3.8695 167.201 3.70874 165.766 3.70874H163.095C162.329 3.70874 161.883 3.7582 161.76 3.85713C161.636 3.95606 161.574 4.27758 161.574 4.8217V20.7741C161.574 21.5655 161.661 22.1344 161.834 22.4806C162.007 22.8269 162.18 23 162.353 23H156.64Z" fill="#3A68FF"/>
</svg>
